<svg version="1.1" id="Layer_1" xmlns="http://www.w3.org/2000/svg" xmlns:xlink="http://www.w3.org/1999/xlink" x="0px" y="0px"
	 width="100%" viewBox="0 0 527 158" enable-background="new 0 0 527 158" xml:space="preserve">
<path fill="#404040" opacity="1.000000" stroke="none" 
	d="
M65.000000,159.000000 
	C43.714626,159.000000 22.429253,159.000000 1.000000,159.000000 
	C1.000000,115.645874 1.000000,72.291595 1.372467,28.484728 
	C3.469107,29.991419 6.267766,31.751434 6.676358,33.954689 
	C7.362350,37.653770 6.741264,41.491364 11.245680,43.249500 
	C11.701582,43.427444 12.157248,44.978455 11.875073,45.458458 
	C9.552833,49.408794 11.716493,52.456081 13.653955,55.600868 
	C14.749449,57.379028 15.775256,59.200123 16.904984,61.465469 
	C16.985104,84.837814 16.981672,107.746574 17.005392,130.655319 
	C17.015697,140.608032 21.351072,144.974136 31.104393,145.008545 
	C39.069004,145.036636 47.033432,145.114975 55.070477,145.509262 
	C58.794258,149.555313 58.738132,156.152191 64.675743,158.103638 
	C64.861923,158.164810 64.895355,158.690735 65.000000,159.000000 
z"/>
<path fill="#575757" opacity="1.000000" stroke="none" 
	d="
M464.000000,0.999996 
	C485.267395,1.000000 506.534790,1.000000 528.000000,1.000000 
	C528.000000,26.687223 528.000000,52.374954 527.636230,78.517380 
	C525.768433,78.081490 524.333984,77.032860 522.745911,76.332687 
	C519.261230,74.796303 515.698853,73.436333 512.094482,71.540466 
	C512.014038,57.461739 512.036926,43.846756 511.989899,30.232019 
	C511.958374,21.108009 506.931427,16.068268 497.873657,15.999035 
	C487.915405,15.922918 477.956848,15.884400 468.118713,15.510511 
	C469.293304,13.693780 471.153809,12.232206 471.222961,10.690271 
	C471.342590,8.023597 471.023621,5.029921 466.885498,4.744691 
	C465.842590,4.672808 464.957581,2.310012 464.000000,0.999996 
z"/>
<path fill="#505050" opacity="1.000000" stroke="none" 
	d="
M519.000000,159.000000 
	C482.312439,159.000000 445.624878,159.000000 408.357300,158.657333 
	C407.575684,158.058273 407.420380,157.642960 407.165649,157.568726 
	C400.514648,155.629959 398.732544,148.137634 393.460693,145.096863 
	C428.281891,145.072266 462.639252,145.120697 497.019348,145.540375 
	C501.002808,148.939713 504.958221,151.974808 508.938354,154.977158 
	C509.158783,155.143417 509.621185,154.950653 509.908142,155.072693 
	C512.946106,156.364563 515.971313,157.686401 519.000000,159.000000 
z"/>
<path fill="#535353" opacity="1.000000" stroke="none" 
	d="
M519.491089,159.000000 
	C515.971313,157.686401 512.946106,156.364563 509.908142,155.072693 
	C509.621185,154.950653 509.158783,155.143417 508.938354,154.977158 
	C504.958221,151.974808 501.002808,148.939713 497.442596,145.467346 
	C507.656158,144.934433 511.964691,140.587723 511.996490,130.712311 
	C512.059570,111.142998 512.111572,91.573654 512.168152,72.004326 
	C515.698853,73.436333 519.261230,74.796303 522.745911,76.332687 
	C524.333984,77.032860 525.768433,78.081490 527.636230,78.986038 
	C528.000000,105.666679 528.000000,132.333359 528.000000,159.000000 
	C525.286377,159.000000 522.634277,159.000000 519.491089,159.000000 
z"/>
<path fill="#494949" opacity="1.000000" stroke="none" 
	d="
M320.000000,159.000000 
	C288.645782,159.000000 257.291534,159.000000 225.394943,158.641342 
	C224.490204,157.740524 224.174210,156.765228 223.758560,156.720734 
	C216.752426,155.970627 215.327408,149.604935 212.459595,145.095642 
	C244.947586,145.070999 276.971832,145.120621 309.013550,145.523376 
	C309.603180,147.010300 309.965668,148.332489 310.784943,149.244110 
	C313.774139,152.570221 316.915802,155.759293 320.000000,159.000000 
z"/>
<path fill="#464646" opacity="1.000000" stroke="none" 
	d="
M211.995865,145.169922 
	C215.327408,149.604935 216.752426,155.970627 223.758560,156.720734 
	C224.174210,156.765228 224.490204,157.740524 224.926285,158.641342 
	C193.312439,159.000000 161.624878,159.000000 129.454681,158.636200 
	C128.196671,156.898010 127.715401,155.179199 126.588303,154.216629 
	C123.716911,151.764404 122.485786,148.865799 123.459381,145.096161 
	C153.280640,145.070770 182.638260,145.120346 211.995865,145.169922 
z"/>
<path fill="#4D4D4D" opacity="1.000000" stroke="none" 
	d="
M320.468658,159.000000 
	C316.915802,155.759293 313.774139,152.570221 310.784943,149.244110 
	C309.965668,148.332489 309.603180,147.010300 309.477356,145.449570 
	C337.614716,145.071716 365.305756,145.120819 392.996826,145.169922 
	C398.732544,148.137634 400.514648,155.629959 407.165649,157.568726 
	C407.420380,157.642960 407.575684,158.058273 407.888672,158.657333 
	C378.979095,159.000000 349.958221,159.000000 320.468658,159.000000 
z"/>
<path fill="#4D4D4D" opacity="1.000000" stroke="none" 
	d="
M221.000000,1.000000 
	C247.687561,1.000000 274.375122,1.000000 301.531342,1.436611 
	C301.705688,5.799768 301.673889,9.396746 306.387512,11.235680 
	C307.660583,11.732336 308.147949,14.242938 308.532104,15.898714 
	C282.710876,15.921607 257.353516,15.874908 231.888519,15.499683 
	C224.973740,12.892152 223.055634,6.893762 221.000000,1.000000 
z"/>
<path fill="#424242" opacity="1.000000" stroke="none" 
	d="
M16.832451,61.001877 
	C15.775256,59.200123 14.749449,57.379028 13.653955,55.600868 
	C11.716493,52.456081 9.552833,49.408794 11.875073,45.458458 
	C12.157248,44.978455 11.701582,43.427444 11.245680,43.249500 
	C6.741264,41.491364 7.362350,37.653770 6.676358,33.954689 
	C6.267766,31.751434 3.469107,29.991419 1.372467,28.016071 
	C1.000000,19.062975 1.000000,10.125949 1.000000,1.000000 
	C12.686883,1.000000 24.374783,1.000000 36.591606,1.344771 
	C40.412846,6.403029 43.705158,11.116516 46.533882,15.901345 
	C41.096786,15.979797 36.123127,15.964870 31.149801,15.998814 
	C22.065468,16.060814 17.076841,21.053595 17.006338,30.177809 
	C16.926947,40.452332 16.888632,50.727173 16.832451,61.001877 
z"/>
<path fill="#515151" opacity="1.000000" stroke="none" 
	d="
M308.995972,15.829128 
	C308.147949,14.242938 307.660583,11.732336 306.387512,11.235680 
	C301.673889,9.396746 301.705688,5.799768 302.000000,1.436611 
	C323.687561,1.000000 345.375122,1.000000 367.588257,1.350462 
	C368.909180,2.900558 369.872925,4.022719 370.467377,5.314782 
	C372.061920,8.780677 373.498413,12.319277 374.533752,15.899285 
	C352.378571,15.922758 330.687256,15.875945 308.995972,15.829128 
z"/>
<path fill="#494949" opacity="1.000000" stroke="none" 
	d="
M220.531342,1.000000 
	C223.055634,6.893762 224.973740,12.892152 231.424713,15.569763 
	C207.711533,15.921950 184.354538,15.875532 160.979156,15.457304 
	C159.640518,10.390329 158.320267,5.695163 157.000000,0.999999 
	C178.020889,1.000000 199.041794,1.000000 220.531342,1.000000 
z"/>
<path fill="#424242" opacity="1.000000" stroke="none" 
	d="
M122.995728,145.171112 
	C122.485786,148.865799 123.716911,151.764404 126.588303,154.216629 
	C127.715401,155.179199 128.196671,156.898010 128.986023,158.636200 
	C107.979103,159.000000 86.958214,159.000000 65.468658,159.000000 
	C64.895355,158.690735 64.861923,158.164810 64.675743,158.103638 
	C58.738132,156.152191 58.794258,149.555313 55.534119,145.435242 
	C78.282059,145.072372 100.638893,145.121735 122.995728,145.171112 
z"/>
<path fill="#474747" opacity="1.000000" stroke="none" 
	d="
M156.531342,0.999999 
	C158.320267,5.695163 159.640518,10.390329 160.515411,15.528439 
	C139.379013,15.924341 118.687981,15.877300 97.997719,15.398426 
	C97.665649,10.311063 97.332825,5.655531 97.000000,1.000000 
	C116.687561,1.000000 136.375122,1.000000 156.531342,0.999999 
z"/>
<path fill="#444444" opacity="1.000000" stroke="none" 
	d="
M96.531342,1.000000 
	C97.332825,5.655531 97.665649,10.311063 97.533974,15.469308 
	C80.378799,15.924683 63.688137,15.877343 46.997475,15.830004 
	C43.705158,11.116516 40.412846,6.403029 37.060265,1.344771 
	C56.687561,1.000000 76.375122,1.000000 96.531342,1.000000 
z"/>
<path fill="#535353" opacity="1.000000" stroke="none" 
	d="
M374.997650,15.829002 
	C373.498413,12.319277 372.061920,8.780677 370.467377,5.314782 
	C369.872925,4.022719 368.909180,2.900558 368.056885,1.350462 
	C384.020905,1.000000 400.041779,1.000000 416.550568,1.383323 
	C417.742920,2.769600 418.399658,4.599138 419.159546,4.643057 
	C424.608826,4.958006 424.187805,8.098461 423.130066,11.887990 
	C422.786682,13.118224 423.025055,14.510844 422.533417,15.899033 
	C406.378906,15.922255 390.688263,15.875630 374.997650,15.829002 
z"/>
<path fill="#555555" opacity="1.000000" stroke="none" 
	d="
M422.997314,15.829185 
	C423.025055,14.510844 422.786682,13.118224 423.130066,11.887990 
	C424.187805,8.098461 424.608826,4.958006 419.159546,4.643057 
	C418.399658,4.599138 417.742920,2.769600 417.019226,1.383323 
	C432.354218,1.000000 447.708466,1.000000 463.531342,0.999996 
	C464.957581,2.310012 465.842590,4.672808 466.885498,4.744691 
	C471.023621,5.029921 471.342590,8.023597 471.222961,10.690271 
	C471.153809,12.232206 469.293304,13.693780 467.654785,15.580627 
	C452.379456,15.922885 437.688385,15.876036 422.997314,15.829185 
z"/>
<path fill="#FDFDFD" opacity="1.000000" stroke="none" 
	d="
M422.533417,15.899033 
	C437.688385,15.876036 452.379456,15.922885 467.534485,15.899618 
	C477.956848,15.884400 487.915405,15.922918 497.873657,15.999035 
	C506.931427,16.068268 511.958374,21.108009 511.989899,30.232019 
	C512.036926,43.846756 512.014038,57.461739 512.094482,71.540466 
	C512.111572,91.573654 512.059570,111.142998 511.996490,130.712311 
	C511.964691,140.587723 507.656158,144.934433 497.419861,145.096100 
	C462.639252,145.120697 428.281891,145.072266 393.460693,145.096863 
	C365.305756,145.120819 337.614716,145.071716 309.459839,145.096436 
	C276.971832,145.120621 244.947586,145.070999 212.459595,145.095642 
	C182.638260,145.120346 153.280640,145.070770 123.459381,145.096161 
	C100.638893,145.121735 78.282059,145.072372 55.461586,145.097015 
	C47.033432,145.114975 39.069004,145.036636 31.104393,145.008545 
	C21.351072,144.974136 17.015697,140.608032 17.005392,130.655319 
	C16.981672,107.746574 16.985104,84.837814 16.904984,61.465469 
	C16.888632,50.727173 16.926947,40.452332 17.006338,30.177809 
	C17.076841,21.053595 22.065468,16.060814 31.149801,15.998814 
	C36.123127,15.964870 41.096786,15.979797 46.533882,15.901345 
	C63.688137,15.877343 80.378799,15.924683 97.533211,15.901140 
	C118.687981,15.877300 139.379013,15.924341 160.533783,15.900248 
	C184.354538,15.875532 207.711533,15.921950 231.532349,15.898289 
	C257.353516,15.874908 282.710876,15.921607 308.532104,15.898720 
	C330.687256,15.875945 352.378571,15.922758 374.533752,15.899288 
	C390.688263,15.875630 406.378906,15.922255 422.533417,15.899033 
M344.265625,106.167076 
	C344.711731,110.739624 345.157867,115.312164 345.666290,120.522987 
	C355.907898,119.960815 365.695740,119.647629 375.435516,118.788971 
	C379.919250,118.393677 383.056885,115.885391 383.113678,110.680641 
	C383.142517,108.040619 383.859009,105.415459 384.035889,102.768303 
	C384.534546,95.304985 384.234955,88.130280 375.484283,84.386131 
	C381.456818,82.713432 384.022400,78.379097 383.662720,73.385223 
	C383.073853,65.209534 381.388428,57.104527 379.944763,49.009075 
	C379.761963,47.984077 378.409424,46.784882 377.327148,46.362400 
	C366.694397,42.211826 355.671722,42.788731 344.172546,43.464157 
	C344.172546,64.355301 344.172546,84.790009 344.265625,106.167076 
M81.681328,59.932148 
	C81.161331,50.905220 75.411598,43.995914 65.344849,43.205139 
	C58.118603,42.637493 50.811852,43.094688 42.936081,43.094688 
	C42.936081,69.031128 42.936081,94.360519 42.936081,119.464836 
	C52.233883,119.464836 61.378460,119.624672 70.508209,119.327965 
	C72.301849,119.269676 74.452072,117.814140 75.728043,116.374084 
	C80.785408,110.666367 81.333977,103.332504 81.594254,96.279419 
	C82.029556,84.482864 81.709381,72.658440 81.681328,59.932148 
M267.854065,100.678131 
	C267.438751,94.579247 267.023468,88.480362 266.555817,81.612885 
	C270.787933,82.587837 274.367737,83.412521 278.025177,84.255081 
	C278.598663,96.434380 279.150696,108.158081 279.683624,119.475876 
	C285.736633,119.475876 291.143799,119.475876 296.926086,119.475876 
	C296.211975,93.652008 295.514954,68.445496 294.814209,43.105267 
	C288.350403,43.105267 282.480896,43.105267 276.516022,43.105267 
	C277.030365,53.263374 277.522766,62.987236 278.013672,72.681900 
	C274.027924,72.681900 270.629639,72.681900 266.604492,72.681900 
	C266.604492,62.653164 266.604492,52.927097 266.604492,43.345184 
	C263.053162,43.345184 260.148346,43.345184 257.531250,43.345184 
	C257.531250,68.742371 257.531250,93.783981 257.531250,118.988258 
	C261.556580,119.166145 265.117737,119.323524 268.991852,119.494728 
	C268.596741,113.201111 268.233246,107.411102 267.854065,100.678131 
M311.217499,110.784241 
	C311.824158,105.898636 312.430817,101.013031 313.044250,96.072762 
	C314.527832,96.072762 315.524200,96.176430 316.492493,96.055458 
	C321.680145,95.407288 323.487335,97.591995 323.086304,102.789970 
	C322.654449,108.387695 322.988678,114.044525 322.988678,120.172119 
	C329.308014,119.842056 334.518616,119.569908 340.393127,119.263077 
	C339.036804,93.513725 337.720032,68.515282 336.376984,43.017605 
	C326.574158,43.017605 317.803497,43.017605 308.086761,43.017605 
	C305.260498,68.709892 302.454773,94.215485 299.638245,119.819138 
	C303.735931,119.819138 306.834961,119.819138 310.304260,119.819138 
	C310.587524,116.941330 310.846527,114.309837 311.217499,110.784241 
M97.688850,102.199547 
	C97.912010,100.254448 98.135170,98.309357 98.407730,95.933693 
	C101.710915,96.106071 104.774399,96.265945 108.045410,96.436646 
	C108.461617,104.511475 108.852371,112.092506 109.265785,120.113129 
	C114.678772,119.824745 119.751816,119.554474 125.874359,119.228287 
	C124.492554,94.535721 123.174179,70.309700 121.652451,46.096443 
	C121.588112,45.072773 119.658401,43.367569 118.558029,43.335377 
	C110.468239,43.098686 102.368355,43.207535 93.488007,43.207535 
	C90.668999,68.814514 87.864655,94.288223 85.064651,119.722565 
	C89.372749,119.722565 92.457970,119.722565 95.682716,119.722565 
	C96.345490,113.963570 96.970482,108.532852 97.688850,102.199547 
M472.306488,120.180771 
	C477.520172,120.352379 484.167450,118.861771 484.820343,114.467293 
	C486.653381,102.129791 486.402283,89.482620 486.987701,76.638931 
	C478.847687,75.877686 472.105255,75.247139 465.481781,74.627716 
	C465.291321,74.360428 465.133209,74.239456 465.118439,74.102982 
	C464.796722,71.125954 464.448517,68.150871 464.190491,65.168053 
	C463.545258,57.710407 464.163147,57.142990 472.029358,58.232708 
	C472.029358,61.104321 472.029358,64.040833 472.029358,67.101234 
	C476.837189,67.420563 481.232025,67.712463 486.138580,68.038353 
	C486.138580,61.443680 486.526642,55.440792 485.928833,49.537720 
	C485.718628,47.462006 483.225586,44.093712 481.545380,43.947174 
	C473.025421,43.204147 464.423279,43.109959 455.868408,43.378349 
	C454.584320,43.418636 452.631958,46.451756 452.333344,48.315823 
	C451.788361,51.717583 452.177765,55.283207 452.305725,58.775780 
	C452.607971,67.027374 452.985596,75.276215 453.335175,83.585297 
	C460.463318,84.023224 467.050201,84.427895 473.613953,84.831146 
	C473.613953,91.159554 473.613953,97.072769 473.613953,103.457901 
	C470.152435,103.068069 467.121582,102.726730 463.788910,102.351402 
	C463.788910,98.317848 463.788910,94.873276 463.788910,91.220779 
	C459.738220,90.811882 456.054169,90.439995 452.039917,90.034782 
	C451.703644,95.824036 450.797211,101.006554 451.238220,106.071747 
	C452.078827,115.726509 451.665131,116.248413 461.043396,119.162231 
	C464.277344,120.167023 467.918701,119.860519 472.306488,120.180771 
M190.900055,68.679398 
	C192.941757,74.436897 195.069183,80.166130 196.981537,85.966278 
	C197.712906,88.184540 198.514267,90.614212 198.317429,92.862961 
	C197.514938,102.031113 196.338318,111.166534 195.327957,120.063797 
	C202.372391,120.063797 208.764908,120.063797 216.580032,120.063797 
	C212.142807,92.420738 221.535004,67.560081 229.526947,42.426041 
	C223.202927,42.426041 217.643539,42.426041 212.160568,42.426041 
	C210.682877,55.058216 209.247803,67.326019 207.812744,79.593819 
	C207.140045,79.575462 206.467361,79.557106 205.794678,79.538742 
	C203.498215,67.109718 201.201752,54.680687 198.873993,42.082294 
	C193.380280,42.512615 188.336197,42.907715 182.864059,43.336342 
	C185.562836,51.844326 188.111908,59.880337 190.900055,68.679398 
M156.837921,117.368973 
	C157.735596,118.347641 158.615738,120.157707 159.533661,120.177071 
	C169.297501,120.383141 179.067337,120.304985 189.029495,120.304985 
	C189.410858,115.581909 189.709824,111.879456 189.996735,108.326080 
	C186.150208,107.909889 183.025238,107.320198 179.895233,107.292267 
	C175.244431,107.250755 174.346909,104.968437 174.404724,100.709404 
	C174.642090,83.225487 174.510468,65.736557 174.514496,48.249470 
	C174.514908,46.501606 174.514557,44.753742 174.514557,43.206619 
	C167.980301,43.206619 162.215210,43.206619 156.835663,43.206619 
	C156.835663,67.941040 156.835663,92.187729 156.837921,117.368973 
M421.155823,112.457954 
	C421.155823,114.895813 421.155823,117.333664 421.155823,119.667747 
	C427.448914,119.667747 433.321411,119.667747 439.342896,119.667747 
	C439.342896,98.923477 439.342896,78.580086 439.342896,58.052387 
	C442.133606,58.052387 444.566406,58.052387 447.355957,58.052387 
	C447.673218,53.102722 447.975433,48.388367 448.301392,43.303158 
	C436.187134,43.303158 424.795746,43.303158 413.106628,43.303158 
	C412.808685,47.990845 412.539490,52.226608 412.263519,56.568535 
	C415.844421,57.117237 419.019714,57.603786 421.162659,57.932148 
	C421.162659,76.272194 421.162659,93.878235 421.155823,112.457954 
M390.892975,115.202003 
	C391.835846,116.585350 392.666046,119.050499 393.741364,119.162506 
	C398.114532,119.618050 402.562897,119.352051 407.526825,119.352051 
	C407.526825,100.257477 407.526825,81.393921 407.526825,62.198624 
	C402.045227,62.198624 396.670563,62.198624 390.832062,62.198624 
	C390.832062,79.712616 390.832062,96.988068 390.892975,115.202003 
M130.922119,99.499298 
	C130.970734,104.817192 130.846695,110.146179 131.187347,115.445297 
	C131.274307,116.797958 132.741486,119.092125 133.731918,119.180016 
	C138.276321,119.583313 142.876541,119.357483 147.744263,119.357483 
	C147.744263,100.118561 147.744263,81.285484 147.744263,62.285248 
	C142.127045,62.285248 136.771255,62.285248 130.922806,62.285248 
	C130.922806,74.605652 130.922806,86.552620 130.922119,99.499298 
M133.264420,41.276497 
	C132.390015,42.244968 130.839569,43.161995 130.761261,44.191048 
	C130.463440,48.104717 130.641190,52.054577 130.641190,56.273087 
	C136.930817,56.273087 142.314911,56.273087 147.933411,56.273087 
	C147.933411,51.367992 147.933411,46.640808 147.933411,41.261585 
	C143.061020,41.261585 138.599457,41.261585 133.264420,41.276497 
M398.562225,56.563850 
	C401.628021,56.563850 404.693817,56.563850 407.624390,56.563850 
	C407.624390,51.155533 407.624390,46.608265 407.624390,41.268978 
	C402.539795,41.268978 397.905640,41.052559 393.319641,41.426517 
	C392.221466,41.516068 390.475952,43.533806 390.421356,44.728416 
	C390.249084,48.497269 390.738312,52.296360 391.001099,56.564121 
	C393.392517,56.564121 395.509644,56.564121 398.562225,56.563850 
z"/>
<path fill="#363636" opacity="1.000000" stroke="none" 
	d="
M344.219086,105.695892 
	C344.172546,84.790009 344.172546,64.355301 344.172546,43.464157 
	C355.671722,42.788731 366.694397,42.211826 377.327148,46.362400 
	C378.409424,46.784882 379.761963,47.984077 379.944763,49.009075 
	C381.388428,57.104527 383.073853,65.209534 383.662720,73.385223 
	C384.022400,78.379097 381.456818,82.713432 375.484283,84.386131 
	C384.234955,88.130280 384.534546,95.304985 384.035889,102.768303 
	C383.859009,105.415459 383.142517,108.040619 383.113678,110.680641 
	C383.056885,115.885391 379.919250,118.393677 375.435516,118.788971 
	C365.695740,119.647629 355.907898,119.960815 345.666290,120.522987 
	C345.157867,115.312164 344.711731,110.739624 344.219086,105.695892 
M359.071136,64.496422 
	C359.330750,68.932053 359.590393,73.367676 359.950134,79.513741 
	C363.340424,77.242226 366.557068,76.137161 367.906281,73.903915 
	C369.421082,71.396599 369.496979,67.890968 369.760223,64.782532 
	C370.364227,57.649364 366.672424,54.527622 359.041992,55.748425 
	C359.041992,58.307838 359.041992,60.920998 359.071136,64.496422 
M367.522614,99.497467 
	C367.391602,98.020355 367.297272,96.538902 367.123138,95.066887 
	C366.412354,89.057793 365.290497,88.318939 358.931213,89.808266 
	C358.931213,94.029976 358.731018,98.319229 359.045410,102.570450 
	C359.148254,103.961250 360.482758,106.257523 361.442413,106.359070 
	C362.950317,106.518616 364.919312,105.487892 366.120453,104.354431 
	C367.044189,103.482773 367.086670,101.677299 367.522614,99.497467 
z"/>
<path fill="#353535" opacity="1.000000" stroke="none" 
	d="
M81.694260,60.388947 
	C81.709381,72.658440 82.029556,84.482864 81.594254,96.279419 
	C81.333977,103.332504 80.785408,110.666367 75.728043,116.374084 
	C74.452072,117.814140 72.301849,119.269676 70.508209,119.327965 
	C61.378460,119.624672 52.233883,119.464836 42.936081,119.464836 
	C42.936081,94.360519 42.936081,69.031128 42.936081,43.094688 
	C50.811852,43.094688 58.118603,42.637493 65.344849,43.205139 
	C75.411598,43.995914 81.161331,50.905220 81.694260,60.388947 
M68.253998,58.119049 
	C66.353531,57.809414 64.453056,57.499783 61.778889,57.064091 
	C61.778889,75.775032 61.778889,93.976517 61.778889,112.229706 
	C68.844658,113.607666 69.392097,113.206329 69.722206,106.183647 
	C70.112167,97.887665 70.895134,89.585579 70.770447,81.297226 
	C70.656693,73.735588 69.557777,66.188766 68.253998,58.119049 
z"/>
<path fill="#373737" opacity="1.000000" stroke="none" 
	d="
M267.861938,101.149612 
	C268.233246,107.411102 268.596741,113.201111 268.991852,119.494728 
	C265.117737,119.323524 261.556580,119.166145 257.531250,118.988258 
	C257.531250,93.783981 257.531250,68.742371 257.531250,43.345184 
	C260.148346,43.345184 263.053162,43.345184 266.604492,43.345184 
	C266.604492,52.927097 266.604492,62.653164 266.604492,72.681900 
	C270.629639,72.681900 274.027924,72.681900 278.013672,72.681900 
	C277.522766,62.987236 277.030365,53.263374 276.516022,43.105267 
	C282.480896,43.105267 288.350403,43.105267 294.814209,43.105267 
	C295.514954,68.445496 296.211975,93.652008 296.926086,119.475876 
	C291.143799,119.475876 285.736633,119.475876 279.683624,119.475876 
	C279.150696,108.158081 278.598663,96.434380 278.025177,84.255081 
	C274.367737,83.412521 270.787933,82.587837 266.555817,81.612885 
	C267.023468,88.480362 267.438751,94.579247 267.861938,101.149612 
z"/>
<path fill="#363636" opacity="1.000000" stroke="none" 
	d="
M311.161499,111.231293 
	C310.846527,114.309837 310.587524,116.941330 310.304260,119.819138 
	C306.834961,119.819138 303.735931,119.819138 299.638245,119.819138 
	C302.454773,94.215485 305.260498,68.709892 308.086761,43.017605 
	C317.803497,43.017605 326.574158,43.017605 336.376984,43.017605 
	C337.720032,68.515282 339.036804,93.513725 340.393127,119.263077 
	C334.518616,119.569908 329.308014,119.842056 322.988678,120.172119 
	C322.988678,114.044525 322.654449,108.387695 323.086304,102.789970 
	C323.487335,97.591995 321.680145,95.407288 316.492493,96.055458 
	C315.524200,96.176430 314.527832,96.072762 313.044250,96.072762 
	C312.430817,101.013031 311.824158,105.898636 311.161499,111.231293 
M323.094513,80.383537 
	C322.634796,75.288071 322.108246,70.197487 321.734741,65.095703 
	C321.380402,60.255756 318.646851,59.084702 313.668091,60.196350 
	C313.668091,68.356941 313.668091,76.685791 313.668091,84.977028 
	C315.802582,84.977028 317.970398,84.833931 320.111542,85.011864 
	C323.041443,85.255333 323.429993,83.628738 323.094513,80.383537 
z"/>
<path fill="#363636" opacity="1.000000" stroke="none" 
	d="
M97.642166,102.650848 
	C96.970482,108.532852 96.345490,113.963570 95.682716,119.722565 
	C92.457970,119.722565 89.372749,119.722565 85.064651,119.722565 
	C87.864655,94.288223 90.668999,68.814514 93.488007,43.207535 
	C102.368355,43.207535 110.468239,43.098686 118.558029,43.335377 
	C119.658401,43.367569 121.588112,45.072773 121.652451,46.096443 
	C123.174179,70.309700 124.492554,94.535721 125.874359,119.228287 
	C119.751816,119.554474 114.678772,119.824745 109.265785,120.113129 
	C108.852371,112.092506 108.461617,104.511475 108.045410,96.436646 
	C104.774399,96.265945 101.710915,96.106071 98.407730,95.933693 
	C98.135170,98.309357 97.912010,100.254448 97.642166,102.650848 
M108.511124,75.805069 
	C107.796776,70.626221 107.082428,65.447372 106.343956,60.093651 
	C103.601585,60.093651 101.552643,60.093651 98.886734,60.093651 
	C98.886734,68.554062 98.886734,76.724220 98.886734,84.826721 
	C101.942764,84.826721 105.033508,84.826721 108.510223,84.826721 
	C108.510223,81.910194 108.510223,79.313560 108.511124,75.805069 
z"/>
<path fill="#363636" opacity="1.000000" stroke="none" 
	d="
M471.840210,120.166901 
	C467.918701,119.860519 464.277344,120.167023 461.043396,119.162231 
	C451.665131,116.248413 452.078827,115.726509 451.238220,106.071747 
	C450.797211,101.006554 451.703644,95.824036 452.039917,90.034782 
	C456.054169,90.439995 459.738220,90.811882 463.788910,91.220779 
	C463.788910,94.873276 463.788910,98.317848 463.788910,102.351402 
	C467.121582,102.726730 470.152435,103.068069 473.613953,103.457901 
	C473.613953,97.072769 473.613953,91.159554 473.613953,84.831146 
	C467.050201,84.427895 460.463318,84.023224 453.335175,83.585297 
	C452.985596,75.276215 452.607971,67.027374 452.305725,58.775780 
	C452.177765,55.283207 451.788361,51.717583 452.333344,48.315823 
	C452.631958,46.451756 454.584320,43.418636 455.868408,43.378349 
	C464.423279,43.109959 473.025421,43.204147 481.545380,43.947174 
	C483.225586,44.093712 485.718628,47.462006 485.928833,49.537720 
	C486.526642,55.440792 486.138580,61.443680 486.138580,68.038353 
	C481.232025,67.712463 476.837189,67.420563 472.029358,67.101234 
	C472.029358,64.040833 472.029358,61.104321 472.029358,58.232708 
	C464.163147,57.142990 463.545258,57.710407 464.190491,65.168053 
	C464.448517,68.150871 464.796722,71.125954 465.118439,74.102982 
	C465.133209,74.239456 465.291321,74.360428 465.481781,74.627716 
	C472.105255,75.247139 478.847687,75.877686 486.987701,76.638931 
	C486.402283,89.482620 486.653381,102.129791 484.820343,114.467293 
	C484.167450,118.861771 477.520172,120.352379 471.840210,120.166901 
z"/>
<path fill="#363636" opacity="1.000000" stroke="none" 
	d="
M190.780518,68.297867 
	C188.111908,59.880337 185.562836,51.844326 182.864059,43.336342 
	C188.336197,42.907715 193.380280,42.512615 198.873993,42.082294 
	C201.201752,54.680687 203.498215,67.109718 205.794678,79.538742 
	C206.467361,79.557106 207.140045,79.575462 207.812744,79.593819 
	C209.247803,67.326019 210.682877,55.058216 212.160568,42.426041 
	C217.643539,42.426041 223.202927,42.426041 229.526947,42.426041 
	C221.535004,67.560081 212.142807,92.420738 216.580032,120.063797 
	C208.764908,120.063797 202.372391,120.063797 195.327957,120.063797 
	C196.338318,111.166534 197.514938,102.031113 198.317429,92.862961 
	C198.514267,90.614212 197.712906,88.184540 196.981537,85.966278 
	C195.069183,80.166130 192.941757,74.436897 190.780518,68.297867 
z"/>
<path fill="#353535" opacity="1.000000" stroke="none" 
	d="
M156.836792,116.901695 
	C156.835663,92.187729 156.835663,67.941040 156.835663,43.206619 
	C162.215210,43.206619 167.980301,43.206619 174.514557,43.206619 
	C174.514557,44.753742 174.514908,46.501606 174.514496,48.249470 
	C174.510468,65.736557 174.642090,83.225487 174.404724,100.709404 
	C174.346909,104.968437 175.244431,107.250755 179.895233,107.292267 
	C183.025238,107.320198 186.150208,107.909889 189.996735,108.326080 
	C189.709824,111.879456 189.410858,115.581909 189.029495,120.304985 
	C179.067337,120.304985 169.297501,120.383141 159.533661,120.177071 
	C158.615738,120.157707 157.735596,118.347641 156.836792,116.901695 
z"/>
<path fill="#353535" opacity="1.000000" stroke="none" 
	d="
M421.159241,111.971115 
	C421.162659,93.878235 421.162659,76.272194 421.162659,57.932148 
	C419.019714,57.603786 415.844421,57.117237 412.263519,56.568535 
	C412.539490,52.226608 412.808685,47.990845 413.106628,43.303158 
	C424.795746,43.303158 436.187134,43.303158 448.301392,43.303158 
	C447.975433,48.388367 447.673218,53.102722 447.355957,58.052387 
	C444.566406,58.052387 442.133606,58.052387 439.342896,58.052387 
	C439.342896,78.580086 439.342896,98.923477 439.342896,119.667747 
	C433.321411,119.667747 427.448914,119.667747 421.155823,119.667747 
	C421.155823,117.333664 421.155823,114.895813 421.159241,111.971115 
z"/>
<path fill="#353535" opacity="1.000000" stroke="none" 
	d="
M390.862518,114.732758 
	C390.832062,96.988068 390.832062,79.712616 390.832062,62.198624 
	C396.670563,62.198624 402.045227,62.198624 407.526825,62.198624 
	C407.526825,81.393921 407.526825,100.257477 407.526825,119.352051 
	C402.562897,119.352051 398.114532,119.618050 393.741364,119.162506 
	C392.666046,119.050499 391.835846,116.585350 390.862518,114.732758 
z"/>
<path fill="#353535" opacity="1.000000" stroke="none" 
	d="
M130.922455,98.999443 
	C130.922806,86.552620 130.922806,74.605652 130.922806,62.285248 
	C136.771255,62.285248 142.127045,62.285248 147.744263,62.285248 
	C147.744263,81.285484 147.744263,100.118561 147.744263,119.357483 
	C142.876541,119.357483 138.276321,119.583313 133.731918,119.180016 
	C132.741486,119.092125 131.274307,116.797958 131.187347,115.445297 
	C130.846695,110.146179 130.970734,104.817192 130.922455,98.999443 
z"/>
<path fill="#404040" opacity="1.000000" stroke="none" 
	d="
M133.701157,41.269043 
	C138.599457,41.261585 143.061020,41.261585 147.933411,41.261585 
	C147.933411,46.640808 147.933411,51.367992 147.933411,56.273087 
	C142.314911,56.273087 136.930817,56.273087 130.641190,56.273087 
	C130.641190,52.054577 130.463440,48.104717 130.761261,44.191048 
	C130.839569,43.161995 132.390015,42.244968 133.701157,41.269043 
z"/>
<path fill="#404040" opacity="1.000000" stroke="none" 
	d="
M398.094482,56.563988 
	C395.509644,56.564121 393.392517,56.564121 391.001099,56.564121 
	C390.738312,52.296360 390.249084,48.497269 390.421356,44.728416 
	C390.475952,43.533806 392.221466,41.516068 393.319641,41.426517 
	C397.905640,41.052559 402.539795,41.268978 407.624390,41.268978 
	C407.624390,46.608265 407.624390,51.155533 407.624390,56.563850 
	C404.693817,56.563850 401.628021,56.563850 398.094482,56.563988 
z"/>
<path fill="#F6F6F6" opacity="1.000000" stroke="none" 
	d="
M359.056580,64.015289 
	C359.041992,60.920998 359.041992,58.307838 359.041992,55.748425 
	C366.672424,54.527622 370.364227,57.649364 369.760223,64.782532 
	C369.496979,67.890968 369.421082,71.396599 367.906281,73.903915 
	C366.557068,76.137161 363.340424,77.242226 359.950134,79.513741 
	C359.590393,73.367676 359.330750,68.932053 359.056580,64.015289 
z"/>
<path fill="#F6F6F6" opacity="1.000000" stroke="none" 
	d="
M367.521820,99.892281 
	C367.086670,101.677299 367.044189,103.482773 366.120453,104.354431 
	C364.919312,105.487892 362.950317,106.518616 361.442413,106.359070 
	C360.482758,106.257523 359.148254,103.961250 359.045410,102.570450 
	C358.731018,98.319229 358.931213,94.029976 358.931213,89.808266 
	C365.290497,88.318939 366.412354,89.057793 367.123138,95.066887 
	C367.297272,96.538902 367.391602,98.020355 367.521820,99.892281 
z"/>
<path fill="#F6F6F6" opacity="1.000000" stroke="none" 
	d="
M68.573532,58.377232 
	C69.557777,66.188766 70.656693,73.735588 70.770447,81.297226 
	C70.895134,89.585579 70.112167,97.887665 69.722206,106.183647 
	C69.392097,113.206329 68.844658,113.607666 61.778889,112.229706 
	C61.778889,93.976517 61.778889,75.775032 61.778889,57.064091 
	C64.453056,57.499783 66.353531,57.809414 68.573532,58.377232 
z"/>
<path fill="#F6F6F6" opacity="1.000000" stroke="none" 
	d="
M323.129028,80.862251 
	C323.429993,83.628738 323.041443,85.255333 320.111542,85.011864 
	C317.970398,84.833931 315.802582,84.977028 313.668091,84.977028 
	C313.668091,76.685791 313.668091,68.356941 313.668091,60.196350 
	C318.646851,59.084702 321.380402,60.255756 321.734741,65.095703 
	C322.108246,70.197487 322.634796,75.288071 323.129028,80.862251 
z"/>
<path fill="#F6F6F6" opacity="1.000000" stroke="none" 
	d="
M108.510674,76.261002 
	C108.510223,79.313560 108.510223,81.910194 108.510223,84.826721 
	C105.033508,84.826721 101.942764,84.826721 98.886734,84.826721 
	C98.886734,76.724220 98.886734,68.554062 98.886734,60.093651 
	C101.552643,60.093651 103.601585,60.093651 106.343956,60.093651 
	C107.082428,65.447372 107.796776,70.626221 108.510674,76.261002 
z"/>
</svg>